<svg width="223" height="42" viewBox="0 0 223 42" fill="none" xmlns="http://www.w3.org/2000/svg">
<path d="M22.7611 24.7277C23.39 23.7449 27.4711 18.2636 39.7735 18.0137L38.7605 15.4022C24.6258 15.6901 21.3477 22.366 20.8801 23.4463C21.5102 23.8389 22.1379 24.2649 22.7611 24.7277Z" fill="#1CEAA0"/>
<path d="M26.5753 0C19.11 0 12.4379 4.21492 8.94349 10.6174C9.69583 10.9758 10.5088 11.4322 11.3342 12.0067C14.351 6.46983 20.1197 2.82308 26.5753 2.82308C36.2011 2.82308 44.0314 10.8665 44.0314 20.7543C44.0314 30.6421 36.2011 38.6855 26.5753 38.6855C19.3216 38.6855 12.9341 34.2011 10.3034 27.2585L7.11584 26.5047L7.74197 28.2842C10.7885 36.3175 18.1807 41.5086 26.5753 41.5086C37.7156 41.5086 46.7796 32.1979 46.7796 20.7543C46.7796 9.31071 37.7156 0 26.5753 0Z" fill="#1CEAA0"/>
<path d="M21.7565 29.3863L20.9582 28.739C11.9989 21.4825 1.19332 23.2136 1.08541 23.2315L0.659546 20.6259C1.13182 20.5438 12.0638 18.7627 21.7565 26.043C31.4527 18.7638 41.7535 20.445 42.2304 20.5271L42.5426 23.2327C42.4358 23.2148 31.5142 21.4825 22.5549 28.7402L21.7554 29.3874L21.7565 29.3863Z" fill="#1CEAA0"/>
<path d="M20.3271 23.1129C22.9554 16.4643 31.5887 13.7647 31.859 13.7195L31.8509 13.7147L30.4352 11.6195C30.1092 11.6707 21.3819 14.0622 18.1398 21.9481C18.8673 22.2931 19.5972 22.681 20.3271 23.1117V23.1129Z" fill="#1CEAA0"/>
<path d="M67.1709 8.56087C64.8427 8.56087 63.3002 9.00369 62.5436 9.88934C61.7869 10.7653 61.4086 11.7531 61.4086 12.8528C61.4086 13.7969 61.7335 14.5609 62.3835 15.1448C63.0431 15.719 64.0229 16.1667 65.3228 16.4879L69.4991 17.5244C71.4101 18.0013 72.9671 18.7847 74.17 19.8747C75.3729 20.955 75.9744 22.6485 75.9744 24.955C75.9744 27.4757 74.98 29.2859 72.9914 30.3857C71.0027 31.4854 68.7375 32.0353 66.1959 32.0353C65.1676 32.0353 64.1151 31.8991 63.0383 31.6266C61.9615 31.3541 60.9575 30.8966 60.0262 30.2543C59.9874 30.5852 59.8855 30.9599 59.7206 31.3784C59.5557 31.7969 59.3083 32.0061 58.9785 32.0061C58.6293 32.0061 58.3479 31.9331 58.1345 31.7871C57.9211 31.6412 57.795 31.4027 57.7562 31.0718L56.9268 23.8309C56.9268 23.4417 57.0432 23.1545 57.276 22.9696C57.5088 22.775 57.858 22.6777 58.3237 22.6777C58.6147 22.6777 58.8718 22.7653 59.0949 22.9404C59.318 23.1059 59.449 23.3346 59.4878 23.6266L59.7206 25.6558C59.8176 26.5609 60.487 27.4222 61.7287 28.2397C62.9704 29.0475 64.3382 29.4514 65.8321 29.4514C67.491 29.4514 69.0965 29.1545 70.6486 28.5609C72.2104 27.9672 72.9914 26.7604 72.9914 24.9404C72.9914 23.6266 72.5936 22.7117 71.7982 22.1959C71.0124 21.6801 70.0763 21.2665 68.9898 20.955L64.2169 19.5974C62.4805 19.2081 61.0399 18.5171 59.8952 17.5244C58.7602 16.5219 58.1927 15.0426 58.1927 13.0864C58.1927 10.955 59.0221 9.28593 60.681 8.07912C62.3495 6.86258 64.3528 6.2543 66.6907 6.2543C67.6996 6.2543 68.7327 6.38082 69.7901 6.63386C70.8572 6.88691 71.74 7.3054 72.4384 7.88934C72.4384 7.48058 72.5645 7.11075 72.8168 6.77985C73.0787 6.43922 73.4085 6.2689 73.8062 6.2689C74.0973 6.2689 74.3543 6.35649 74.5775 6.53168C74.8006 6.70686 74.9315 6.94043 74.9703 7.23241L75.0722 13.028C75.0722 13.4465 74.9461 13.7531 74.6939 13.9477C74.4416 14.1326 74.1215 14.2251 73.7335 14.2251C73.394 14.2251 73.1126 14.1521 72.8895 14.0061C72.6761 13.8601 72.55 13.6266 72.5112 13.3054L72.453 11.612C72.3269 10.5122 71.7254 9.72876 70.6486 9.2616C69.5718 8.79445 68.4126 8.56087 67.1709 8.56087Z" fill="white"/>
<path d="M85.7819 29.685C86.7132 29.685 87.3147 29.4222 87.5863 28.8966C87.8579 28.3711 88.2702 28.1083 88.8232 28.1083C89.1239 28.1083 89.3713 28.2202 89.5653 28.4441C89.769 28.6582 89.8708 28.9161 89.8708 29.2178C89.8708 30.084 89.3519 30.7701 88.3139 31.2762C87.2759 31.7823 86.267 32.0353 85.2872 32.0353C84.1522 32.0353 83.1579 31.6363 82.3042 30.8382C81.4505 30.0305 81.0237 29.0913 81.0237 28.0207V17.685H78.841C78.4335 17.685 78.1328 17.5682 77.9388 17.3346C77.7448 17.101 77.6478 16.7993 77.6478 16.4295C77.6478 16.0694 77.7351 15.758 77.9097 15.4952C78.094 15.2324 78.3753 15.101 78.7537 15.101H81.0237C81.0237 14.2154 81.1013 13.0329 81.2565 11.5536C81.4117 10.0743 81.9065 9.33459 82.7407 9.33459C82.9832 9.33459 83.1918 9.36379 83.3664 9.42219C83.5507 9.48058 83.7302 9.57304 83.9048 9.69956V9.99153C83.9048 10.118 83.9097 10.264 83.9194 10.4295C83.9291 10.5852 83.9339 10.7263 83.9339 10.8528V15.101H87.7464C88.115 15.101 88.3818 15.2373 88.5467 15.5098C88.7116 15.7823 88.7941 16.0986 88.7941 16.4587C88.7941 16.7799 88.697 17.067 88.503 17.32C88.3187 17.5633 88.0568 17.685 87.7173 17.685H83.9339V27.5682C83.9339 28.3273 84.1085 28.8723 84.4578 29.2032C84.807 29.5244 85.2484 29.685 85.7819 29.685Z" fill="white"/>
<path d="M100.464 16.7799C98.621 16.7799 97.1901 17.3784 96.1716 18.5755C95.1627 19.7726 94.6582 21.2957 94.6582 23.1448C94.6582 25.0037 95.1627 26.5317 96.1716 27.7288C97.1901 28.9258 98.621 29.5244 100.464 29.5244C102.259 29.5244 103.646 28.9161 104.626 27.6996C105.606 26.483 106.096 24.9648 106.096 23.1448C106.096 21.3249 105.606 19.8115 104.626 18.6047C103.646 17.3881 102.259 16.7799 100.464 16.7799ZM100.464 32.0061C97.777 32.0061 95.5992 31.2032 93.9307 29.5974C92.2621 27.9915 91.4278 25.8407 91.4278 23.1448C91.4278 20.4392 92.2621 18.2884 93.9307 16.6923C95.6089 15.0962 97.7867 14.2981 100.464 14.2981C103.103 14.2981 105.237 15.1108 106.867 16.7361C108.496 18.3516 109.311 20.4879 109.311 23.1448C109.311 25.8017 108.496 27.9429 106.867 29.5682C105.237 31.1935 103.103 32.0061 100.464 32.0061Z" fill="white"/>
<path d="M123.208 16.955C122.044 16.955 121.006 17.2129 120.094 17.7288C119.182 18.2446 118.488 18.8577 118.013 19.5682V29.0718H121.913C122.281 29.0718 122.548 29.2081 122.713 29.4806C122.878 29.7434 122.96 30.0548 122.96 30.4149C122.96 30.7361 122.863 31.0232 122.669 31.2762C122.485 31.5195 122.223 31.6412 121.884 31.6412H112.265C111.858 31.6412 111.557 31.5244 111.363 31.2908C111.169 31.0572 111.072 30.7555 111.072 30.3857C111.072 30.0256 111.159 29.719 111.334 29.466C111.518 29.2032 111.8 29.0718 112.178 29.0718H115.03V17.3492L112.949 17.8601C112.93 17.8699 112.901 17.8796 112.862 17.8893C112.833 17.8893 112.794 17.8893 112.745 17.8893C112.454 17.8893 112.183 17.7726 111.931 17.539C111.678 17.2957 111.552 17.0232 111.552 16.7215C111.552 16.3906 111.62 16.1278 111.756 15.9331C111.901 15.7288 112.11 15.5828 112.382 15.4952L116.441 14.3273C116.48 14.3273 116.505 14.3224 116.514 14.3127C116.524 14.303 116.548 14.2981 116.587 14.2981H116.674C116.878 14.2981 117.053 14.3614 117.198 14.4879C117.344 14.6047 117.416 14.7701 117.416 14.9842L117.722 17.7434C118.391 16.7215 119.269 15.8942 120.356 15.2616C121.452 14.6193 122.849 14.2981 124.547 14.2981C124.867 14.2981 125.148 14.3954 125.391 14.5901C125.643 14.775 125.769 15.0378 125.769 15.3784V18.4879C125.769 18.8966 125.652 19.1983 125.42 19.393C125.187 19.5876 124.886 19.685 124.517 19.685C124.159 19.685 123.848 19.5974 123.586 19.4222C123.334 19.2373 123.208 18.955 123.208 18.5755V16.955Z" fill="white"/>
<path d="M135.256 16.3273C135.256 16.6874 135.174 17.0037 135.009 17.2762C134.844 17.5487 134.577 17.685 134.209 17.685H132.462L137.526 28.5901L141.542 17.685H139.854C139.486 17.685 139.219 17.5487 139.054 17.2762C138.889 17.0037 138.807 16.6874 138.807 16.3273C138.807 16.0061 138.899 15.7239 139.083 15.4806C139.277 15.2275 139.544 15.101 139.884 15.101H145.748C146.165 15.101 146.466 15.2178 146.65 15.4514C146.844 15.685 146.941 15.9867 146.941 16.3565C146.941 16.7166 146.849 17.028 146.664 17.2908C146.49 17.5536 146.213 17.685 145.835 17.685H144.133L138.094 33.4076C137.57 34.6436 136.862 36.0937 135.969 37.758C135.087 39.4222 133.728 40.2543 131.895 40.2543C131.313 40.2543 130.857 40.0937 130.527 39.7725C130.207 39.4514 130.047 39.0961 130.047 38.7069C130.047 38.3468 130.168 37.9769 130.411 37.5974C130.663 37.2178 131.099 37.0232 131.72 37.0134C132.535 37.0134 133.239 36.7166 133.83 36.1229C134.422 35.5292 134.878 34.8431 135.198 34.0645L136.129 31.7288C136.081 31.7288 135.955 31.5341 135.751 31.1448C135.557 30.7458 135.441 30.5025 135.402 30.4149L129.174 17.685H127.413C127.035 17.685 126.758 17.5536 126.584 17.2908C126.409 17.028 126.322 16.7166 126.322 16.3565C126.322 15.9867 126.419 15.685 126.613 15.4514C126.807 15.2178 127.108 15.101 127.515 15.101H134.179C134.519 15.101 134.781 15.2275 134.965 15.4806C135.159 15.7239 135.256 16.0061 135.256 16.3273Z" fill="white"/>
<path d="M165.494 16.3273C165.494 16.6874 165.411 17.0037 165.246 17.2762C165.082 17.5487 164.815 17.685 164.446 17.685H162.089L166.527 27.2762L170.878 17.685H169.423C169.054 17.685 168.787 17.5487 168.622 17.2762C168.457 17.0037 168.375 16.6874 168.375 16.3273C168.375 16.0061 168.467 15.7239 168.651 15.4806C168.845 15.2275 169.112 15.101 169.452 15.101H174.487C174.894 15.101 175.195 15.2178 175.389 15.4514C175.583 15.685 175.68 15.9867 175.68 16.3565C175.68 16.7166 175.588 17.028 175.403 17.2908C175.229 17.5536 174.952 17.685 174.574 17.685H173.09L167.662 29.9331C167.497 30.303 167.308 30.6874 167.094 31.0864C166.881 31.4757 166.595 31.6704 166.236 31.6704C165.906 31.6704 165.605 31.4465 165.334 30.9988C165.072 30.5414 164.863 30.1472 164.708 29.8163L161.289 22.7653L158.102 29.9331C157.859 30.4781 157.607 30.8918 157.345 31.174C157.083 31.4465 156.816 31.5828 156.545 31.5828C156.273 31.5828 155.997 31.4368 155.715 31.1448C155.444 30.8431 155.162 30.4003 154.871 29.8163L148.949 17.685H147.727C147.348 17.685 147.067 17.5536 146.883 17.2908C146.708 17.028 146.621 16.7166 146.621 16.3565C146.621 15.9867 146.718 15.685 146.912 15.4514C147.106 15.2178 147.407 15.101 147.814 15.101H153.358C153.698 15.101 153.96 15.2275 154.144 15.4806C154.338 15.7239 154.435 16.0061 154.435 16.3273C154.435 16.6874 154.352 17.0037 154.187 17.2762C154.023 17.5487 153.756 17.685 153.387 17.685H152.223L156.967 27.2762L160.095 20.3419L158.815 17.685H157.884C157.505 17.685 157.229 17.5536 157.054 17.2908C156.879 17.028 156.792 16.7166 156.792 16.3565C156.792 15.9867 156.884 15.685 157.069 15.4514C157.263 15.2178 157.563 15.101 157.971 15.101H164.417C164.757 15.101 165.018 15.2275 165.203 15.4806C165.397 15.7239 165.494 16.0061 165.494 16.3273Z" fill="white"/>
<path d="M181.588 10.809C180.976 10.809 180.453 10.5949 180.016 10.1667C179.589 9.72876 179.376 9.20321 179.376 8.59007C179.376 7.97693 179.589 7.45625 180.016 7.02803C180.453 6.59007 180.976 6.37109 181.588 6.37109C182.199 6.37109 182.718 6.59007 183.145 7.02803C183.571 7.45625 183.785 7.97693 183.785 8.59007C183.785 9.20321 183.571 9.72876 183.145 10.1667C182.718 10.5949 182.199 10.809 181.588 10.809ZM177.106 30.4295C177.106 30.0694 177.193 29.7628 177.368 29.5098C177.552 29.247 177.833 29.1156 178.212 29.1156H180.205V17.2908L178.124 17.8601C178.105 17.8699 178.076 17.8796 178.037 17.8893C178.008 17.8893 177.969 17.8893 177.921 17.8893C177.63 17.8893 177.358 17.7726 177.106 17.539C176.854 17.2957 176.727 17.0232 176.727 16.7215C176.727 16.41 176.795 16.1472 176.931 15.9331C177.077 15.7093 177.285 15.5633 177.557 15.4952L182.213 14.3273C182.242 14.3176 182.276 14.3127 182.315 14.3127C182.354 14.303 182.398 14.2981 182.446 14.2981C182.659 14.2981 182.834 14.3614 182.97 14.4879C183.115 14.6047 183.188 14.7701 183.188 14.9842V29.1156H185.429C185.798 29.1156 186.064 29.2519 186.229 29.5244C186.394 29.7871 186.477 30.0986 186.477 30.4587C186.477 30.7798 186.38 31.0572 186.186 31.2908C186.001 31.5244 185.74 31.6412 185.4 31.6412H178.299C177.892 31.6412 177.591 31.5341 177.397 31.32C177.203 31.0962 177.106 30.7993 177.106 30.4295Z" fill="white"/>
<path d="M189.372 19.0718C189.372 17.1935 190.042 15.9283 191.381 15.2762C192.719 14.6241 194.15 14.2981 195.673 14.2981C196.663 14.2981 197.642 14.5073 198.613 14.9258C199.583 15.3346 200.247 15.8601 200.606 16.5025L200.621 15.2616C200.621 14.9599 200.727 14.7215 200.941 14.5463C201.154 14.3614 201.411 14.2689 201.712 14.2689C202.139 14.2689 202.459 14.3662 202.672 14.5609C202.886 14.7555 202.992 15.0378 202.992 15.4076L202.934 19.6266C202.895 19.9575 202.769 20.2105 202.556 20.3857C202.343 20.5511 202.071 20.6339 201.741 20.6339C201.421 20.6339 201.208 20.5365 201.101 20.3419C200.994 20.1472 200.892 19.8699 200.795 19.5098C200.465 18.4879 199.781 17.7044 198.743 17.1594C197.715 16.6144 196.682 16.3419 195.644 16.3419C194.752 16.3419 193.971 16.5171 193.301 16.8674C192.632 17.2178 192.297 17.7482 192.297 18.4587C192.297 19.0718 192.496 19.5487 192.894 19.8893C193.292 20.23 193.937 20.5122 194.829 20.7361L198.554 21.9623C199.854 22.4003 201.033 22.955 202.09 23.6266C203.148 24.2981 203.676 25.4562 203.676 27.101C203.676 28.7166 203.123 29.9429 202.018 30.7799C200.921 31.6168 199.379 32.0353 197.39 32.0353C196.352 32.0353 195.212 31.8699 193.971 31.539C192.729 31.1983 191.832 30.7215 191.279 30.1083C191.279 30.7507 191.162 31.1691 190.929 31.3638C190.706 31.5487 190.43 31.6412 190.1 31.6412C189.731 31.6412 189.421 31.5584 189.169 31.393C188.926 31.2275 188.805 30.9502 188.805 30.5609V25.6266C188.815 25.3249 188.931 25.0962 189.154 24.9404C189.377 24.7847 189.63 24.7069 189.911 24.7069C190.338 24.7069 190.634 24.809 190.799 25.0134C190.973 25.2081 191.104 25.4952 191.191 25.8747C191.492 27.1983 192.186 28.191 193.272 28.8528C194.359 29.5146 195.678 29.8455 197.23 29.8455C198.171 29.8455 198.976 29.6655 199.646 29.3054C200.325 28.9453 200.664 28.3565 200.664 27.539C200.664 26.7215 200.47 26.1229 200.082 25.7434C199.694 25.3638 199.005 25.0232 198.016 24.7215L194.058 23.4806C192.826 23.0913 191.735 22.5755 190.784 21.9331C189.843 21.2908 189.372 20.337 189.372 19.0718Z" fill="white"/>
<path d="M209.162 23.4806C209.162 25.3881 209.754 26.8431 210.937 27.8455C212.131 28.8382 213.596 29.3346 215.332 29.3346C216.564 29.3346 217.529 29.1059 218.228 28.6485C218.936 28.1813 219.61 27.6509 220.25 27.0572C220.396 26.9307 220.551 26.8382 220.716 26.7799C220.881 26.7117 221.046 26.6777 221.211 26.6777C221.599 26.6777 221.929 26.7993 222.2 27.0426C222.472 27.2762 222.608 27.5925 222.608 27.9915C222.608 29.2373 221.705 30.2202 219.901 30.9404C218.106 31.6509 216.545 32.0061 215.216 32.0061C212.558 32.0061 210.365 31.2178 208.638 29.6412C206.921 28.0548 206.063 25.9234 206.063 23.247C206.063 20.5998 206.853 18.4489 208.435 16.7944C210.016 15.1302 212.16 14.2981 214.866 14.2981C216.806 14.2981 218.577 14.9745 220.178 16.3273C221.778 17.6704 222.578 19.4076 222.578 21.539C222.578 22.2689 222.351 22.7069 221.895 22.8528C221.448 22.9988 220.881 23.1059 220.192 23.174L209.162 23.4806ZM218.926 20.6047C218.926 19.2129 218.499 18.23 217.646 17.6558C216.802 17.0718 215.875 16.7799 214.866 16.7799C213.159 16.7799 211.801 17.2032 210.792 18.0499C209.793 18.8966 209.23 20.0207 209.104 21.4222L217.849 21.2324C218.121 21.2227 218.368 21.174 218.591 21.0864C218.815 20.9891 218.926 20.8285 218.926 20.6047Z" fill="white"/>
</svg>
