<svg width="50" height="42" viewBox="0 0 50 42" fill="none" xmlns="http://www.w3.org/2000/svg">
<path d="M22.7611 24.7277C23.39 23.7449 27.4711 18.2636 39.7735 18.0137L38.7605 15.4022C24.6258 15.6901 21.3477 22.366 20.8801 23.4463C21.5102 23.8389 22.1379 24.2649 22.7611 24.7277Z" fill="#1CEAA0"/>
<path d="M26.5753 0C19.11 0 12.4379 4.21492 8.94349 10.6174C9.69583 10.9758 10.5088 11.4322 11.3342 12.0067C14.351 6.46983 20.1197 2.82308 26.5753 2.82308C36.2011 2.82308 44.0314 10.8665 44.0314 20.7543C44.0314 30.6421 36.2011 38.6855 26.5753 38.6855C19.3216 38.6855 12.9341 34.2011 10.3034 27.2585L7.11584 26.5047L7.74197 28.2842C10.7885 36.3175 18.1807 41.5086 26.5753 41.5086C37.7156 41.5086 46.7796 32.1979 46.7796 20.7543C46.7796 9.31071 37.7156 0 26.5753 0Z" fill="#1CEAA0"/>
<path d="M21.7565 29.3863L20.9582 28.739C11.9989 21.4825 1.19332 23.2136 1.08541 23.2315L0.659546 20.6259C1.13182 20.5438 12.0638 18.7627 21.7565 26.043C31.4527 18.7638 41.7535 20.445 42.2304 20.5271L42.5426 23.2327C42.4358 23.2148 31.5142 21.4825 22.5549 28.7402L21.7554 29.3874L21.7565 29.3863Z" fill="#1CEAA0"/>
<path d="M20.3271 23.1129C22.9554 16.4643 31.5887 13.7647 31.859 13.7195L31.8509 13.7147L30.4352 11.6195C30.1092 11.6707 21.3819 14.0622 18.1398 21.9481C18.8673 22.2931 19.5972 22.681 20.3271 23.1117V23.1129Z" fill="#1CEAA0"/>
</svg>
